<mxfile host="app.diagrams.net" agent="Mozilla/5.0 (Windows NT 10.0; Win64; x64) AppleWebKit/537.36 (KHTML, like Gecko) Chrome/131.0.0.0 Safari/537.36" version="26.0.6" pages="2">
  <diagram name="페이지-1" id="xpPOfKROtYRnWMv5sMzp">
    <mxGraphModel dx="2261" dy="780" grid="1" gridSize="10" guides="1" tooltips="1" connect="1" arrows="1" fold="1" page="1" pageScale="1" pageWidth="827" pageHeight="1169" math="0" shadow="0">
      <root>
        <mxCell id="0" />
        <mxCell id="1" parent="0" />
        <mxCell id="HX7Mdp8xnc4UykLtyXE2-36" value="" style="rounded=0;whiteSpace=wrap;html=1;labelBackgroundColor=none;" vertex="1" parent="1">
          <mxGeometry x="200" y="178" width="360" height="120" as="geometry" />
        </mxCell>
        <mxCell id="HX7Mdp8xnc4UykLtyXE2-30" value="" style="rounded=0;whiteSpace=wrap;html=1;labelBackgroundColor=none;" vertex="1" parent="1">
          <mxGeometry x="-160" y="178" width="320" height="120" as="geometry" />
        </mxCell>
        <mxCell id="HX7Mdp8xnc4UykLtyXE2-23" value="" style="rounded=0;whiteSpace=wrap;html=1;labelBackgroundColor=none;" vertex="1" parent="1">
          <mxGeometry x="-480" y="178" width="280" height="60" as="geometry" />
        </mxCell>
        <mxCell id="HX7Mdp8xnc4UykLtyXE2-21" value="" style="rounded=0;whiteSpace=wrap;html=1;labelBackgroundColor=none;" vertex="1" parent="1">
          <mxGeometry x="-800" y="178" width="280" height="122" as="geometry" />
        </mxCell>
        <mxCell id="HX7Mdp8xnc4UykLtyXE2-1" value="애완용품 구매" style="text;html=1;align=center;verticalAlign=middle;resizable=0;points=[];autosize=1;strokeColor=none;fillColor=none;labelBackgroundColor=none;" vertex="1" parent="1">
          <mxGeometry x="-800" y="10" width="100" height="30" as="geometry" />
        </mxCell>
        <mxCell id="HX7Mdp8xnc4UykLtyXE2-2" value="회원" style="text;html=1;align=center;verticalAlign=middle;resizable=0;points=[];autosize=1;strokeColor=none;fillColor=none;labelBackgroundColor=none;" vertex="1" parent="1">
          <mxGeometry x="-800" y="120" width="50" height="30" as="geometry" />
        </mxCell>
        <mxCell id="HX7Mdp8xnc4UykLtyXE2-3" value="비회원" style="text;html=1;align=center;verticalAlign=middle;resizable=0;points=[];autosize=1;strokeColor=none;fillColor=none;labelBackgroundColor=none;" vertex="1" parent="1">
          <mxGeometry x="-480" y="120" width="60" height="30" as="geometry" />
        </mxCell>
        <mxCell id="HX7Mdp8xnc4UykLtyXE2-4" value="판매자" style="text;html=1;align=center;verticalAlign=middle;resizable=0;points=[];autosize=1;strokeColor=none;fillColor=none;labelBackgroundColor=none;" vertex="1" parent="1">
          <mxGeometry x="-160" y="120" width="60" height="30" as="geometry" />
        </mxCell>
        <mxCell id="HX7Mdp8xnc4UykLtyXE2-5" value="관리자" style="text;html=1;align=center;verticalAlign=middle;resizable=0;points=[];autosize=1;strokeColor=none;fillColor=none;labelBackgroundColor=none;" vertex="1" parent="1">
          <mxGeometry x="200" y="120" width="60" height="30" as="geometry" />
        </mxCell>
        <mxCell id="HX7Mdp8xnc4UykLtyXE2-6" value="[R] 회원은 애완용품 전체 조회를 할 수 있다." style="text;html=1;align=left;verticalAlign=middle;resizable=0;points=[];autosize=1;strokeColor=none;fillColor=none;labelBackgroundColor=none;" vertex="1" parent="1">
          <mxGeometry x="-800" y="178" width="260" height="30" as="geometry" />
        </mxCell>
        <mxCell id="HX7Mdp8xnc4UykLtyXE2-7" value="[R] 회원은 애완용품 키워드 조회를 할 수 있다." style="text;html=1;align=left;verticalAlign=middle;resizable=0;points=[];autosize=1;strokeColor=none;fillColor=none;labelBackgroundColor=none;" vertex="1" parent="1">
          <mxGeometry x="-800" y="208" width="270" height="30" as="geometry" />
        </mxCell>
        <mxCell id="HX7Mdp8xnc4UykLtyXE2-8" value="C - Create : 생성&lt;div&gt;R - Read : 조회&lt;/div&gt;&lt;div&gt;U - Update : 수정&lt;/div&gt;&lt;div&gt;D - Delete : 삭제&lt;/div&gt;" style="text;html=1;align=left;verticalAlign=middle;resizable=0;points=[];autosize=1;strokeColor=none;fillColor=none;labelBackgroundColor=none;" vertex="1" parent="1">
          <mxGeometry x="-680" y="40" width="120" height="70" as="geometry" />
        </mxCell>
        <mxCell id="HX7Mdp8xnc4UykLtyXE2-12" value="[C] 회원은 애완용품 구매를 할 수 있다." style="text;html=1;align=left;verticalAlign=middle;resizable=0;points=[];autosize=1;strokeColor=none;fillColor=none;labelBackgroundColor=none;" vertex="1" parent="1">
          <mxGeometry x="-800" y="238" width="230" height="30" as="geometry" />
        </mxCell>
        <mxCell id="HX7Mdp8xnc4UykLtyXE2-14" value="[D] 회원은 애완용품 구매 취소 할 수 있다." style="text;html=1;align=left;verticalAlign=middle;resizable=0;points=[];autosize=1;strokeColor=none;fillColor=none;labelBackgroundColor=none;" vertex="1" parent="1">
          <mxGeometry x="-800" y="268" width="250" height="30" as="geometry" />
        </mxCell>
        <mxCell id="HX7Mdp8xnc4UykLtyXE2-15" value="[R] 비회원은 애완용품 전체 조회를 할 수 있다." style="text;html=1;align=left;verticalAlign=middle;resizable=0;points=[];autosize=1;strokeColor=none;fillColor=none;labelBackgroundColor=none;" vertex="1" parent="1">
          <mxGeometry x="-480" y="178" width="270" height="30" as="geometry" />
        </mxCell>
        <mxCell id="HX7Mdp8xnc4UykLtyXE2-16" value="[R] 비회원은 애완용품 키워드 조회를 할 수 있다." style="text;html=1;align=left;verticalAlign=middle;resizable=0;points=[];autosize=1;strokeColor=none;fillColor=none;labelBackgroundColor=none;" vertex="1" parent="1">
          <mxGeometry x="-480" y="208" width="280" height="30" as="geometry" />
        </mxCell>
        <mxCell id="HX7Mdp8xnc4UykLtyXE2-22" value="애완용품 구매 서비스" style="text;html=1;align=center;verticalAlign=middle;resizable=0;points=[];autosize=1;strokeColor=none;fillColor=none;labelBackgroundColor=none;" vertex="1" parent="1">
          <mxGeometry x="-800" y="148" width="140" height="30" as="geometry" />
        </mxCell>
        <mxCell id="HX7Mdp8xnc4UykLtyXE2-24" value="애완용품 구매 서비스" style="text;html=1;align=center;verticalAlign=middle;resizable=0;points=[];autosize=1;strokeColor=none;fillColor=none;labelBackgroundColor=none;" vertex="1" parent="1">
          <mxGeometry x="-480" y="148" width="140" height="30" as="geometry" />
        </mxCell>
        <mxCell id="HX7Mdp8xnc4UykLtyXE2-26" value="[C] 판매자는 애완용품을 등록할 수 있다." style="text;html=1;align=left;verticalAlign=middle;resizable=0;points=[];autosize=1;strokeColor=none;fillColor=none;labelBackgroundColor=none;" vertex="1" parent="1">
          <mxGeometry x="-160" y="178" width="240" height="30" as="geometry" />
        </mxCell>
        <mxCell id="HX7Mdp8xnc4UykLtyXE2-27" value="[U] 판매자는 등록된 애완용품 정보를 수정할 수 있다." style="text;html=1;align=left;verticalAlign=middle;resizable=0;points=[];autosize=1;strokeColor=none;fillColor=none;labelBackgroundColor=none;" vertex="1" parent="1">
          <mxGeometry x="-160" y="208" width="310" height="30" as="geometry" />
        </mxCell>
        <mxCell id="HX7Mdp8xnc4UykLtyXE2-28" value="[R] 판매자는 등록한 애완용품 정보를 조회할 수 있다." style="text;html=1;align=left;verticalAlign=middle;resizable=0;points=[];autosize=1;strokeColor=none;fillColor=none;labelBackgroundColor=none;" vertex="1" parent="1">
          <mxGeometry x="-160" y="238" width="310" height="30" as="geometry" />
        </mxCell>
        <mxCell id="HX7Mdp8xnc4UykLtyXE2-29" value="[D] 판매자는 등록한 애완용품 정보를 삭제할 수 있다." style="text;html=1;align=left;verticalAlign=middle;resizable=0;points=[];autosize=1;strokeColor=none;fillColor=none;labelBackgroundColor=none;" vertex="1" parent="1">
          <mxGeometry x="-160" y="268" width="310" height="30" as="geometry" />
        </mxCell>
        <mxCell id="HX7Mdp8xnc4UykLtyXE2-31" value="[R] 관리자는 등록된 상품 목록을 조회(전체, 키워드)할 수 있다." style="text;html=1;align=left;verticalAlign=middle;resizable=0;points=[];autosize=1;strokeColor=none;fillColor=none;labelBackgroundColor=none;" vertex="1" parent="1">
          <mxGeometry x="200" y="178" width="360" height="30" as="geometry" />
        </mxCell>
        <mxCell id="HX7Mdp8xnc4UykLtyXE2-33" value="[U] 관리자는 등록한 상품을 수정할 수 있다." style="text;html=1;align=left;verticalAlign=middle;resizable=0;points=[];autosize=1;strokeColor=none;fillColor=none;labelBackgroundColor=none;" vertex="1" parent="1">
          <mxGeometry x="200" y="238" width="250" height="30" as="geometry" />
        </mxCell>
        <mxCell id="HX7Mdp8xnc4UykLtyXE2-34" value="[D] 관리자는 판매자가 등록한 상품을 삭제할 수 있다." style="text;html=1;align=left;verticalAlign=middle;resizable=0;points=[];autosize=1;strokeColor=none;fillColor=none;labelBackgroundColor=none;" vertex="1" parent="1">
          <mxGeometry x="200" y="268" width="310" height="30" as="geometry" />
        </mxCell>
        <mxCell id="HX7Mdp8xnc4UykLtyXE2-35" value="[C] 관리자가 판매자를 대신해 상품을 등록할 수 있다." style="text;html=1;align=left;verticalAlign=middle;resizable=0;points=[];autosize=1;strokeColor=none;fillColor=none;labelBackgroundColor=none;" vertex="1" parent="1">
          <mxGeometry x="200" y="208" width="310" height="30" as="geometry" />
        </mxCell>
        <mxCell id="HX7Mdp8xnc4UykLtyXE2-37" value="애완용품 구매 서비스" style="swimlane;whiteSpace=wrap;html=1;labelBackgroundColor=none;" vertex="1" parent="1">
          <mxGeometry x="-400" y="320" width="360" height="480" as="geometry">
            <mxRectangle x="-400" y="320" width="160" height="30" as="alternateBounds" />
          </mxGeometry>
        </mxCell>
        <mxCell id="HX7Mdp8xnc4UykLtyXE2-39" value="[R] 애완용품 전체 조회를 할 수 있다." style="text;html=1;align=left;verticalAlign=middle;resizable=0;points=[];autosize=1;strokeColor=none;fillColor=none;labelBackgroundColor=none;" vertex="1" parent="HX7Mdp8xnc4UykLtyXE2-37">
          <mxGeometry y="30" width="220" height="30" as="geometry" />
        </mxCell>
        <mxCell id="HX7Mdp8xnc4UykLtyXE2-40" value="[R] 애완용품 키워드 조회를 할 수 있다." style="text;html=1;align=left;verticalAlign=middle;resizable=0;points=[];autosize=1;strokeColor=none;fillColor=none;labelBackgroundColor=none;" vertex="1" parent="HX7Mdp8xnc4UykLtyXE2-37">
          <mxGeometry y="60" width="230" height="30" as="geometry" />
        </mxCell>
        <mxCell id="HX7Mdp8xnc4UykLtyXE2-41" value="[C] 애완용품 구매를 할 수 있다." style="text;html=1;align=left;verticalAlign=middle;resizable=0;points=[];autosize=1;strokeColor=none;fillColor=none;labelBackgroundColor=none;" vertex="1" parent="HX7Mdp8xnc4UykLtyXE2-37">
          <mxGeometry y="90" width="190" height="30" as="geometry" />
        </mxCell>
        <mxCell id="HX7Mdp8xnc4UykLtyXE2-42" value="[U] 애완용품 구매 정보 수정 할 수 있다." style="text;html=1;align=left;verticalAlign=middle;resizable=0;points=[];autosize=1;strokeColor=none;fillColor=none;labelBackgroundColor=none;" vertex="1" parent="HX7Mdp8xnc4UykLtyXE2-37">
          <mxGeometry y="120" width="230" height="30" as="geometry" />
        </mxCell>
        <mxCell id="HX7Mdp8xnc4UykLtyXE2-43" value="[D] 애완용품 구매 취소 할 수 있다." style="text;html=1;align=left;verticalAlign=middle;resizable=0;points=[];autosize=1;strokeColor=none;fillColor=none;labelBackgroundColor=none;" vertex="1" parent="HX7Mdp8xnc4UykLtyXE2-37">
          <mxGeometry y="150" width="210" height="30" as="geometry" />
        </mxCell>
        <mxCell id="HX7Mdp8xnc4UykLtyXE2-46" value="[C] 애완용품을 등록할 수 있다." style="text;html=1;align=left;verticalAlign=middle;resizable=0;points=[];autosize=1;strokeColor=none;fillColor=none;labelBackgroundColor=none;" vertex="1" parent="HX7Mdp8xnc4UykLtyXE2-37">
          <mxGeometry y="200" width="190" height="30" as="geometry" />
        </mxCell>
        <mxCell id="HX7Mdp8xnc4UykLtyXE2-47" value="[U] 등록된 애완용품 정보를 수정할 수 있다." style="text;html=1;align=left;verticalAlign=middle;resizable=0;points=[];autosize=1;strokeColor=none;fillColor=none;labelBackgroundColor=none;" vertex="1" parent="HX7Mdp8xnc4UykLtyXE2-37">
          <mxGeometry y="230" width="250" height="30" as="geometry" />
        </mxCell>
        <mxCell id="HX7Mdp8xnc4UykLtyXE2-48" value="[R] 등록한 애완용품 정보를 조회할 수 있다." style="text;html=1;align=left;verticalAlign=middle;resizable=0;points=[];autosize=1;strokeColor=none;fillColor=none;labelBackgroundColor=none;" vertex="1" parent="HX7Mdp8xnc4UykLtyXE2-37">
          <mxGeometry y="260" width="250" height="30" as="geometry" />
        </mxCell>
        <mxCell id="HX7Mdp8xnc4UykLtyXE2-49" value="[D] 등록한 애완용품 정보를 삭제할 수 있다." style="text;html=1;align=left;verticalAlign=middle;resizable=0;points=[];autosize=1;strokeColor=none;fillColor=none;labelBackgroundColor=none;" vertex="1" parent="HX7Mdp8xnc4UykLtyXE2-37">
          <mxGeometry y="290" width="250" height="30" as="geometry" />
        </mxCell>
        <mxCell id="HX7Mdp8xnc4UykLtyXE2-50" value="[R] 관리자는 등록된 상품 목록을 조회(전체, 키워드)할 수 있다." style="text;html=1;align=left;verticalAlign=middle;resizable=0;points=[];autosize=1;strokeColor=none;fillColor=none;labelBackgroundColor=none;" vertex="1" parent="HX7Mdp8xnc4UykLtyXE2-37">
          <mxGeometry y="360" width="360" height="30" as="geometry" />
        </mxCell>
        <mxCell id="HX7Mdp8xnc4UykLtyXE2-51" value="[C] 관리자가 판재마를 대신해 상품을 등록할 수 있다." style="text;html=1;align=left;verticalAlign=middle;resizable=0;points=[];autosize=1;strokeColor=none;fillColor=none;labelBackgroundColor=none;" vertex="1" parent="HX7Mdp8xnc4UykLtyXE2-37">
          <mxGeometry y="390" width="310" height="30" as="geometry" />
        </mxCell>
        <mxCell id="HX7Mdp8xnc4UykLtyXE2-52" value="[U] 관리자는 등록한 상품을 수정할 수 있다." style="text;html=1;align=left;verticalAlign=middle;resizable=0;points=[];autosize=1;strokeColor=none;fillColor=none;labelBackgroundColor=none;" vertex="1" parent="HX7Mdp8xnc4UykLtyXE2-37">
          <mxGeometry y="420" width="250" height="30" as="geometry" />
        </mxCell>
        <mxCell id="HX7Mdp8xnc4UykLtyXE2-53" value="[D] 관리자는 판매자가 등록한 상품을 삭제할 수 있다." style="text;html=1;align=left;verticalAlign=middle;resizable=0;points=[];autosize=1;strokeColor=none;fillColor=none;labelBackgroundColor=none;" vertex="1" parent="HX7Mdp8xnc4UykLtyXE2-37">
          <mxGeometry y="450" width="310" height="30" as="geometry" />
        </mxCell>
        <mxCell id="HX7Mdp8xnc4UykLtyXE2-54" value="애완용품 구매 서비스" style="text;html=1;align=center;verticalAlign=middle;resizable=0;points=[];autosize=1;strokeColor=none;fillColor=none;labelBackgroundColor=none;" vertex="1" parent="1">
          <mxGeometry x="-160" y="150" width="140" height="30" as="geometry" />
        </mxCell>
        <mxCell id="HX7Mdp8xnc4UykLtyXE2-55" value="애완용품 구매 서비스" style="text;html=1;align=center;verticalAlign=middle;resizable=0;points=[];autosize=1;strokeColor=none;fillColor=none;labelBackgroundColor=none;" vertex="1" parent="1">
          <mxGeometry x="200" y="150" width="140" height="30" as="geometry" />
        </mxCell>
        <mxCell id="HX7Mdp8xnc4UykLtyXE2-56" value="인증서비스" style="text;html=1;align=center;verticalAlign=middle;resizable=0;points=[];autosize=1;strokeColor=none;fillColor=none;labelBackgroundColor=none;" vertex="1" parent="1">
          <mxGeometry x="-800" y="380" width="80" height="30" as="geometry" />
        </mxCell>
        <mxCell id="HX7Mdp8xnc4UykLtyXE2-57" value="회원은 로그인 할 수 있다." style="text;html=1;align=left;verticalAlign=middle;resizable=0;points=[];autosize=1;strokeColor=none;fillColor=none;labelBackgroundColor=none;" vertex="1" parent="1">
          <mxGeometry x="-800" y="418" width="160" height="30" as="geometry" />
        </mxCell>
        <mxCell id="HX7Mdp8xnc4UykLtyXE2-58" value="훠원은 로그아웃 할 수 있다." style="text;html=1;align=left;verticalAlign=middle;resizable=0;points=[];autosize=1;strokeColor=none;fillColor=none;labelBackgroundColor=none;" vertex="1" parent="1">
          <mxGeometry x="-800" y="448" width="170" height="30" as="geometry" />
        </mxCell>
        <mxCell id="HX7Mdp8xnc4UykLtyXE2-59" value="회원은 회원탈퇴 할 수 있다." style="text;html=1;align=left;verticalAlign=middle;resizable=0;points=[];autosize=1;strokeColor=none;fillColor=none;labelBackgroundColor=none;" vertex="1" parent="1">
          <mxGeometry x="-800" y="478" width="170" height="30" as="geometry" />
        </mxCell>
        <mxCell id="HX7Mdp8xnc4UykLtyXE2-60" value="회원은 개인정보 조회 할 수 있다." style="text;html=1;align=left;verticalAlign=middle;resizable=0;points=[];autosize=1;strokeColor=none;fillColor=none;labelBackgroundColor=none;" vertex="1" parent="1">
          <mxGeometry x="-800" y="508" width="200" height="30" as="geometry" />
        </mxCell>
        <mxCell id="HX7Mdp8xnc4UykLtyXE2-61" value="회원은 개인정보 수정 할 수 있다." style="text;html=1;align=left;verticalAlign=middle;resizable=0;points=[];autosize=1;strokeColor=none;fillColor=none;labelBackgroundColor=none;" vertex="1" parent="1">
          <mxGeometry x="-800" y="538" width="200" height="30" as="geometry" />
        </mxCell>
        <mxCell id="HX7Mdp8xnc4UykLtyXE2-62" value="회원은 판매자 계정 전환 할 수 있다." style="text;html=1;align=left;verticalAlign=middle;resizable=0;points=[];autosize=1;strokeColor=none;fillColor=none;labelBackgroundColor=none;" vertex="1" parent="1">
          <mxGeometry x="-800" y="568" width="210" height="30" as="geometry" />
        </mxCell>
        <mxCell id="HX7Mdp8xnc4UykLtyXE2-63" value="회원은 판매자 계정에서 일반 계정으로 계정 전환 할 수 있다." style="text;html=1;align=left;verticalAlign=middle;resizable=0;points=[];autosize=1;strokeColor=none;fillColor=none;labelBackgroundColor=none;" vertex="1" parent="1">
          <mxGeometry x="-800" y="598" width="340" height="30" as="geometry" />
        </mxCell>
      </root>
    </mxGraphModel>
  </diagram>
  <diagram id="7RsoHNAiTK_eJ5zqE-tH" name="페이지-2">
    <mxGraphModel dx="1147" dy="624" grid="1" gridSize="10" guides="1" tooltips="1" connect="1" arrows="1" fold="1" page="1" pageScale="1" pageWidth="827" pageHeight="1169" math="0" shadow="0">
      <root>
        <mxCell id="0" />
        <mxCell id="1" parent="0" />
        <mxCell id="IX6FpC19Vh6v1pivbuGl-1" value="회원" style="shape=umlActor;verticalLabelPosition=bottom;verticalAlign=top;html=1;" vertex="1" parent="1">
          <mxGeometry x="40" y="400" width="40" height="80" as="geometry" />
        </mxCell>
        <mxCell id="IX6FpC19Vh6v1pivbuGl-2" value="애완용품 시스템" style="shape=umlFrame;whiteSpace=wrap;html=1;pointerEvents=0;width=120;height=40;" vertex="1" parent="1">
          <mxGeometry x="120" y="40" width="560" height="600" as="geometry" />
        </mxCell>
        <mxCell id="IX6FpC19Vh6v1pivbuGl-4" value="비회원" style="shape=umlActor;verticalLabelPosition=bottom;verticalAlign=top;html=1;" vertex="1" parent="1">
          <mxGeometry x="40" y="120" width="40" height="80" as="geometry" />
        </mxCell>
        <mxCell id="IX6FpC19Vh6v1pivbuGl-5" value="판매자" style="shape=umlActor;verticalLabelPosition=bottom;verticalAlign=top;html=1;" vertex="1" parent="1">
          <mxGeometry x="720" y="120" width="40" height="80" as="geometry" />
        </mxCell>
        <mxCell id="nbKN0mdV0i461bg2E8ae-1" value="관리자" style="shape=umlActor;verticalLabelPosition=bottom;verticalAlign=top;html=1;" vertex="1" parent="1">
          <mxGeometry x="720" y="400" width="40" height="80" as="geometry" />
        </mxCell>
        <mxCell id="nbKN0mdV0i461bg2E8ae-2" value="애완용품&lt;div&gt;조회&lt;/div&gt;" style="ellipse;whiteSpace=wrap;html=1;" vertex="1" parent="1">
          <mxGeometry x="160" y="240" width="80" height="40" as="geometry" />
        </mxCell>
        <mxCell id="nbKN0mdV0i461bg2E8ae-3" value="애완용품&lt;div&gt;구매&lt;/div&gt;" style="ellipse;whiteSpace=wrap;html=1;" vertex="1" parent="1">
          <mxGeometry x="160" y="320" width="80" height="40" as="geometry" />
        </mxCell>
        <mxCell id="nbKN0mdV0i461bg2E8ae-4" value="나의&amp;nbsp;&lt;span style=&quot;background-color: transparent; color: light-dark(rgb(0, 0, 0), rgb(255, 255, 255));&quot;&gt;구매&lt;/span&gt;&lt;div&gt;&lt;span style=&quot;background-color: transparent; color: light-dark(rgb(0, 0, 0), rgb(255, 255, 255));&quot;&gt;내역 조회&lt;/span&gt;&lt;/div&gt;" style="ellipse;whiteSpace=wrap;html=1;" vertex="1" parent="1">
          <mxGeometry x="160" y="400" width="80" height="40" as="geometry" />
        </mxCell>
        <mxCell id="nbKN0mdV0i461bg2E8ae-5" value="나의 용품&lt;div&gt;구매 취소&lt;/div&gt;" style="ellipse;whiteSpace=wrap;html=1;" vertex="1" parent="1">
          <mxGeometry x="160" y="480" width="80" height="40" as="geometry" />
        </mxCell>
        <mxCell id="7vGVXKty0iao-r3I-n87-1" value="나의 구매&lt;div&gt;내역&lt;/div&gt;" style="ellipse;whiteSpace=wrap;html=1;" vertex="1" parent="1">
          <mxGeometry x="160" y="560" width="80" height="40" as="geometry" />
        </mxCell>
        <mxCell id="XmylfUd0-AaxObLc_PDa-2" value="use" style="html=1;verticalAlign=bottom;endArrow=open;curved=0;rounded=0;entryX=0;entryY=0.5;entryDx=0;entryDy=0;endFill=0;exitX=0.5;exitY=0.5;exitDx=0;exitDy=0;exitPerimeter=0;" edge="1" parent="1" source="IX6FpC19Vh6v1pivbuGl-4" target="nbKN0mdV0i461bg2E8ae-2">
          <mxGeometry width="80" relative="1" as="geometry">
            <mxPoint x="120" y="240" as="sourcePoint" />
            <mxPoint x="180" y="390" as="targetPoint" />
          </mxGeometry>
        </mxCell>
        <mxCell id="XmylfUd0-AaxObLc_PDa-3" value="use" style="html=1;verticalAlign=bottom;endArrow=open;curved=0;rounded=0;entryX=0;entryY=0.5;entryDx=0;entryDy=0;endFill=0;exitX=0.5;exitY=0.5;exitDx=0;exitDy=0;exitPerimeter=0;" edge="1" parent="1" source="IX6FpC19Vh6v1pivbuGl-1" target="7vGVXKty0iao-r3I-n87-1">
          <mxGeometry width="80" relative="1" as="geometry">
            <mxPoint x="120" y="440" as="sourcePoint" />
            <mxPoint x="210" y="230" as="targetPoint" />
          </mxGeometry>
        </mxCell>
        <mxCell id="XmylfUd0-AaxObLc_PDa-4" value="use" style="html=1;verticalAlign=bottom;endArrow=open;curved=0;rounded=0;entryX=0;entryY=0.5;entryDx=0;entryDy=0;endFill=0;exitX=0.5;exitY=0.5;exitDx=0;exitDy=0;exitPerimeter=0;" edge="1" parent="1" source="IX6FpC19Vh6v1pivbuGl-1" target="nbKN0mdV0i461bg2E8ae-3">
          <mxGeometry width="80" relative="1" as="geometry">
            <mxPoint x="120" y="440" as="sourcePoint" />
            <mxPoint x="262" y="244" as="targetPoint" />
          </mxGeometry>
        </mxCell>
        <mxCell id="XmylfUd0-AaxObLc_PDa-5" value="use" style="html=1;verticalAlign=bottom;endArrow=open;curved=0;rounded=0;entryX=0;entryY=0.5;entryDx=0;entryDy=0;endFill=0;exitX=0.5;exitY=0.5;exitDx=0;exitDy=0;exitPerimeter=0;" edge="1" parent="1" source="IX6FpC19Vh6v1pivbuGl-1" target="nbKN0mdV0i461bg2E8ae-4">
          <mxGeometry width="80" relative="1" as="geometry">
            <mxPoint x="120" y="440" as="sourcePoint" />
            <mxPoint x="546" y="345.5" as="targetPoint" />
          </mxGeometry>
        </mxCell>
        <mxCell id="XmylfUd0-AaxObLc_PDa-6" value="use" style="html=1;verticalAlign=bottom;endArrow=open;curved=0;rounded=0;entryX=0;entryY=0.5;entryDx=0;entryDy=0;endFill=0;exitX=0.5;exitY=0.5;exitDx=0;exitDy=0;exitPerimeter=0;" edge="1" parent="1" source="IX6FpC19Vh6v1pivbuGl-1" target="nbKN0mdV0i461bg2E8ae-5">
          <mxGeometry width="80" relative="1" as="geometry">
            <mxPoint x="120" y="440" as="sourcePoint" />
            <mxPoint x="556" y="355.5" as="targetPoint" />
          </mxGeometry>
        </mxCell>
        <mxCell id="XmylfUd0-AaxObLc_PDa-7" value="use" style="html=1;verticalAlign=bottom;endArrow=open;curved=0;rounded=0;entryX=0;entryY=1;entryDx=0;entryDy=0;endFill=0;exitX=0.5;exitY=0.5;exitDx=0;exitDy=0;exitPerimeter=0;" edge="1" parent="1" source="IX6FpC19Vh6v1pivbuGl-1" target="nbKN0mdV0i461bg2E8ae-2">
          <mxGeometry width="80" relative="1" as="geometry">
            <mxPoint x="120" y="440" as="sourcePoint" />
            <mxPoint x="250" y="280" as="targetPoint" />
          </mxGeometry>
        </mxCell>
        <mxCell id="XmylfUd0-AaxObLc_PDa-8" value="전체" style="ellipse;whiteSpace=wrap;html=1;" vertex="1" parent="1">
          <mxGeometry x="150" y="160" width="40" height="40" as="geometry" />
        </mxCell>
        <mxCell id="XmylfUd0-AaxObLc_PDa-9" value="키워드" style="ellipse;whiteSpace=wrap;html=1;" vertex="1" parent="1">
          <mxGeometry x="210" y="160" width="40" height="40" as="geometry" />
        </mxCell>
        <mxCell id="XmylfUd0-AaxObLc_PDa-10" value="&amp;lt;&amp;lt;Extends&amp;gt;&amp;gt;" style="endArrow=open;endSize=12;dashed=1;html=1;rounded=0;exitX=0.5;exitY=1;exitDx=0;exitDy=0;" edge="1" parent="1" source="XmylfUd0-AaxObLc_PDa-8" target="nbKN0mdV0i461bg2E8ae-2">
          <mxGeometry width="160" relative="1" as="geometry">
            <mxPoint x="330" y="160" as="sourcePoint" />
            <mxPoint x="490" y="160" as="targetPoint" />
          </mxGeometry>
        </mxCell>
        <mxCell id="XmylfUd0-AaxObLc_PDa-11" value="&amp;lt;&amp;lt;Extends&amp;gt;&amp;gt;" style="endArrow=open;endSize=12;dashed=1;html=1;rounded=0;exitX=0.5;exitY=1;exitDx=0;exitDy=0;" edge="1" parent="1" source="XmylfUd0-AaxObLc_PDa-9" target="nbKN0mdV0i461bg2E8ae-2">
          <mxGeometry width="160" relative="1" as="geometry">
            <mxPoint x="350" y="200" as="sourcePoint" />
            <mxPoint x="392" y="242" as="targetPoint" />
          </mxGeometry>
        </mxCell>
        <mxCell id="XmylfUd0-AaxObLc_PDa-12" value="로그인" style="ellipse;whiteSpace=wrap;html=1;" vertex="1" parent="1">
          <mxGeometry x="320" y="260" width="80" height="40" as="geometry" />
        </mxCell>
        <mxCell id="XmylfUd0-AaxObLc_PDa-13" value="&amp;lt;&amp;lt;Include&amp;gt;&amp;gt;" style="endArrow=open;endSize=12;dashed=1;html=1;rounded=0;exitX=1;exitY=0.5;exitDx=0;exitDy=0;entryX=0;entryY=0.5;entryDx=0;entryDy=0;" edge="1" parent="1" source="nbKN0mdV0i461bg2E8ae-3" target="XmylfUd0-AaxObLc_PDa-12">
          <mxGeometry width="160" relative="1" as="geometry">
            <mxPoint x="330" y="390" as="sourcePoint" />
            <mxPoint x="320" y="340" as="targetPoint" />
          </mxGeometry>
        </mxCell>
        <mxCell id="XmylfUd0-AaxObLc_PDa-15" value="&amp;lt;&amp;lt;Include&amp;gt;&amp;gt;" style="endArrow=open;endSize=12;dashed=1;html=1;rounded=0;exitX=1;exitY=0.5;exitDx=0;exitDy=0;entryX=0.042;entryY=0.702;entryDx=0;entryDy=0;entryPerimeter=0;" edge="1" parent="1" source="nbKN0mdV0i461bg2E8ae-4" target="XmylfUd0-AaxObLc_PDa-12">
          <mxGeometry width="160" relative="1" as="geometry">
            <mxPoint x="380" y="370" as="sourcePoint" />
            <mxPoint x="500" y="410" as="targetPoint" />
          </mxGeometry>
        </mxCell>
        <mxCell id="XmylfUd0-AaxObLc_PDa-16" value="&amp;lt;&amp;lt;Include&amp;gt;&amp;gt;" style="endArrow=open;endSize=12;dashed=1;html=1;rounded=0;exitX=1;exitY=0.5;exitDx=0;exitDy=0;entryX=0;entryY=1;entryDx=0;entryDy=0;" edge="1" parent="1" source="nbKN0mdV0i461bg2E8ae-5" target="XmylfUd0-AaxObLc_PDa-12">
          <mxGeometry width="160" relative="1" as="geometry">
            <mxPoint x="370" y="400" as="sourcePoint" />
            <mxPoint x="490" y="440" as="targetPoint" />
          </mxGeometry>
        </mxCell>
        <mxCell id="XmylfUd0-AaxObLc_PDa-17" value="&amp;lt;&amp;lt;Include&amp;gt;&amp;gt;" style="endArrow=open;endSize=12;dashed=1;html=1;rounded=0;exitX=1;exitY=0.5;exitDx=0;exitDy=0;entryX=0.34;entryY=0.99;entryDx=0;entryDy=0;entryPerimeter=0;" edge="1" parent="1" source="7vGVXKty0iao-r3I-n87-1" target="XmylfUd0-AaxObLc_PDa-12">
          <mxGeometry width="160" relative="1" as="geometry">
            <mxPoint x="370" y="460" as="sourcePoint" />
            <mxPoint x="490" y="500" as="targetPoint" />
          </mxGeometry>
        </mxCell>
        <mxCell id="XmylfUd0-AaxObLc_PDa-18" value="애완용품&lt;div&gt;서비스&lt;/div&gt;" style="ellipse;whiteSpace=wrap;html=1;" vertex="1" parent="1">
          <mxGeometry x="520" y="160" width="80" height="40" as="geometry" />
        </mxCell>
        <mxCell id="XmylfUd0-AaxObLc_PDa-25" value="" style="edgeStyle=orthogonalEdgeStyle;rounded=0;orthogonalLoop=1;jettySize=auto;html=1;endArrow=block;endFill=0;" edge="1" parent="1" source="XmylfUd0-AaxObLc_PDa-19" target="XmylfUd0-AaxObLc_PDa-18">
          <mxGeometry relative="1" as="geometry">
            <Array as="points">
              <mxPoint x="485" y="220" />
              <mxPoint x="560" y="220" />
            </Array>
          </mxGeometry>
        </mxCell>
        <mxCell id="XmylfUd0-AaxObLc_PDa-19" value="물품&lt;div&gt;등록&lt;/div&gt;" style="ellipse;whiteSpace=wrap;html=1;" vertex="1" parent="1">
          <mxGeometry x="465" y="240" width="40" height="40" as="geometry" />
        </mxCell>
        <mxCell id="XmylfUd0-AaxObLc_PDa-26" value="" style="edgeStyle=orthogonalEdgeStyle;rounded=0;orthogonalLoop=1;jettySize=auto;html=1;endArrow=block;endFill=0;" edge="1" parent="1" source="XmylfUd0-AaxObLc_PDa-21" target="XmylfUd0-AaxObLc_PDa-18">
          <mxGeometry relative="1" as="geometry" />
        </mxCell>
        <mxCell id="XmylfUd0-AaxObLc_PDa-21" value="물품&lt;div&gt;조회&lt;/div&gt;" style="ellipse;whiteSpace=wrap;html=1;" vertex="1" parent="1">
          <mxGeometry x="515" y="240" width="40" height="40" as="geometry" />
        </mxCell>
        <mxCell id="XmylfUd0-AaxObLc_PDa-27" value="" style="edgeStyle=orthogonalEdgeStyle;rounded=0;orthogonalLoop=1;jettySize=auto;html=1;endArrow=block;endFill=0;" edge="1" parent="1" source="XmylfUd0-AaxObLc_PDa-22" target="XmylfUd0-AaxObLc_PDa-18">
          <mxGeometry relative="1" as="geometry" />
        </mxCell>
        <mxCell id="XmylfUd0-AaxObLc_PDa-22" value="물품&lt;div&gt;수정&lt;/div&gt;" style="ellipse;whiteSpace=wrap;html=1;" vertex="1" parent="1">
          <mxGeometry x="565" y="240" width="40" height="40" as="geometry" />
        </mxCell>
        <mxCell id="XmylfUd0-AaxObLc_PDa-28" value="" style="edgeStyle=orthogonalEdgeStyle;rounded=0;orthogonalLoop=1;jettySize=auto;html=1;endArrow=block;endFill=0;" edge="1" parent="1" source="XmylfUd0-AaxObLc_PDa-24">
          <mxGeometry relative="1" as="geometry">
            <mxPoint x="560" y="200" as="targetPoint" />
            <Array as="points">
              <mxPoint x="560" y="220" />
            </Array>
          </mxGeometry>
        </mxCell>
        <mxCell id="XmylfUd0-AaxObLc_PDa-24" value="물품&lt;div&gt;삭제&lt;/div&gt;" style="ellipse;whiteSpace=wrap;html=1;" vertex="1" parent="1">
          <mxGeometry x="615" y="240" width="40" height="40" as="geometry" />
        </mxCell>
        <mxCell id="XmylfUd0-AaxObLc_PDa-29" value="use" style="html=1;verticalAlign=bottom;endArrow=open;curved=0;rounded=0;entryX=1;entryY=0.5;entryDx=0;entryDy=0;endFill=0;exitX=0.5;exitY=0.5;exitDx=0;exitDy=0;exitPerimeter=0;" edge="1" parent="1" source="IX6FpC19Vh6v1pivbuGl-5" target="XmylfUd0-AaxObLc_PDa-18">
          <mxGeometry width="80" relative="1" as="geometry">
            <mxPoint x="640" y="130" as="sourcePoint" />
            <mxPoint x="780" y="110" as="targetPoint" />
          </mxGeometry>
        </mxCell>
        <mxCell id="XmylfUd0-AaxObLc_PDa-30" value="&amp;lt;&amp;lt;Include&amp;gt;&amp;gt;" style="endArrow=open;endSize=12;dashed=1;html=1;rounded=0;exitX=0;exitY=0.5;exitDx=0;exitDy=0;entryX=0.5;entryY=0;entryDx=0;entryDy=0;" edge="1" parent="1" source="XmylfUd0-AaxObLc_PDa-18" target="XmylfUd0-AaxObLc_PDa-12">
          <mxGeometry width="160" relative="1" as="geometry">
            <mxPoint x="360" y="210" as="sourcePoint" />
            <mxPoint x="440" y="250" as="targetPoint" />
            <Array as="points" />
          </mxGeometry>
        </mxCell>
        <mxCell id="XmylfUd0-AaxObLc_PDa-31" value="계정 전환" style="ellipse;whiteSpace=wrap;html=1;" vertex="1" parent="1">
          <mxGeometry x="320" y="180" width="80" height="40" as="geometry" />
        </mxCell>
        <mxCell id="XmylfUd0-AaxObLc_PDa-32" value="&amp;lt;&amp;lt;Include&amp;gt;&amp;gt;" style="endArrow=open;endSize=12;dashed=1;html=1;rounded=0;exitX=0;exitY=0.5;exitDx=0;exitDy=0;entryX=1;entryY=0.5;entryDx=0;entryDy=0;" edge="1" parent="1" source="XmylfUd0-AaxObLc_PDa-18" target="XmylfUd0-AaxObLc_PDa-31">
          <mxGeometry width="160" relative="1" as="geometry">
            <mxPoint x="530" y="190" as="sourcePoint" />
            <mxPoint x="370" y="290" as="targetPoint" />
            <Array as="points" />
          </mxGeometry>
        </mxCell>
        <mxCell id="XmylfUd0-AaxObLc_PDa-33" value="회원가입" style="ellipse;whiteSpace=wrap;html=1;" vertex="1" parent="1">
          <mxGeometry x="320" y="100" width="80" height="40" as="geometry" />
        </mxCell>
        <mxCell id="XmylfUd0-AaxObLc_PDa-34" value="use" style="html=1;verticalAlign=bottom;endArrow=open;curved=0;rounded=0;entryX=0;entryY=0.5;entryDx=0;entryDy=0;endFill=0;exitX=0.5;exitY=0.5;exitDx=0;exitDy=0;exitPerimeter=0;" edge="1" parent="1" source="IX6FpC19Vh6v1pivbuGl-4" target="XmylfUd0-AaxObLc_PDa-33">
          <mxGeometry width="80" relative="1" as="geometry">
            <mxPoint x="70" y="250" as="sourcePoint" />
            <mxPoint x="170" y="270" as="targetPoint" />
          </mxGeometry>
        </mxCell>
        <mxCell id="XmylfUd0-AaxObLc_PDa-35" value="애완용품&lt;div&gt;서비스&lt;/div&gt;" style="ellipse;whiteSpace=wrap;html=1;" vertex="1" parent="1">
          <mxGeometry x="520" y="400" width="80" height="40" as="geometry" />
        </mxCell>
      </root>
    </mxGraphModel>
  </diagram>
</mxfile>
